<svg viewBox="0 0 16 16" xmlns="http://www.w3.org/2000/svg" xmlns:xlink="http://www.w3.org/1999/xlink" width="16.000000" height="16.000000" fill="none">
	<rect id="icon-park-outline:fire" width="16.000000" height="16.000000" x="0.000000" y="0.000000" fill="rgb(255,255,255)" fill-opacity="0" />
	<path id="Vector" d="M13 9.69931C13 9.01398 12.965 8.27931 12.585 7.13731C12.205 5.99531 12.1287 5.84798 11.727 5.14265C11.5553 6.58165 10.637 7.18165 10.4037 7.36098C10.4037 7.17431 9.84833 5.11198 9.006 3.87765C8.179 2.66665 7.05433 1.87231 6.395 1.33331C6.395 2.35665 6.10733 3.87798 5.695 4.65331C5.283 5.42831 5.20567 5.45665 4.69067 6.03331C4.17567 6.60998 3.93967 6.78831 3.509 7.48831C3.07833 8.18831 3 9.12065 3 9.80598C3 12.598 5.255 14.6666 8 14.6666C10.745 14.6666 13 12.4913 13 9.69931Z" fill-rule="nonzero" stroke="rgb(160.601,160.601,160.601)" stroke-linejoin="round" stroke-width="1.5" />
</svg>
