<svg viewBox="0 0 24 24" xmlns="http://www.w3.org/2000/svg" xmlns:xlink="http://www.w3.org/1999/xlink" width="24.000000" height="24.000000" fill="none">
	<rect id="icon-park-outline:apple-one" width="24.000000" height="24.000000" x="0.000000" y="0.000000" fill="rgb(255,255,255)" fill-opacity="0" />
	<g id="Group">
		<path id="Vector" d="M14.367 21.3104C15.0185 21.4564 15.5655 21.4964 16.1255 21.2499C17.235 20.7609 17.911 20.1789 18.7315 19.3094C20.2525 17.6974 21 15.4819 21 12.5144C21 9.54691 20.2 8.01291 18.9665 7.00991C17.733 6.00691 17.0185 5.81491 15.5275 6.00691C14.0365 6.19891 13.2245 7.80141 12.004 7.80141C10.7835 7.80141 9.2965 6.22141 8.003 6.00691C6.709 5.79191 6 6.00691 4.88 7.00991C3.76 8.01291 3 9.57491 3 12.5149C3 15.4539 3.776 17.6329 5.2965 19.2449C6.1165 20.1144 6.765 20.7614 7.8745 21.2499C8.4345 21.4969 9.0135 21.4569 9.642 21.3109C10.271 21.1659 10.771 20.5109 12 20.5109L12 20.5099C13.2155 20.5099 13.7155 21.1649 14.367 21.3104Z" fill-rule="nonzero" stroke="rgb(0,0,0)" stroke-width="2" />
		<path id="Vector" d="M12.0045 7.8015C12.3968 3.93383 14.0637 2 17.005 2C17.275 2.81367 17.3447 3.6015 17.214 4.3635C17.1523 4.72517 16.9602 5.241 16.6375 5.911M7.11449 13C6.97616 13.673 6.97616 14.3658 7.11449 15.0785C7.25249 15.7908 7.54699 16.3408 7.99799 16.7285" fill-rule="nonzero" stroke="rgb(0,0,0)" stroke-linecap="round" stroke-width="2" />
	</g>
</svg>
