<svg width="24" height="24" viewBox="0 0 24 24" fill="none" xmlns="http://www.w3.org/2000/svg">
<path d="M12 20.5104C13.2155 20.5104 13.7155 21.1654 14.367 21.3109C15.0185 21.4569 15.5655 21.4969 16.1255 21.2504C17.235 20.7614 17.911 20.1794 18.7315 19.3099C20.2525 17.6979 21 15.4824 21 12.5149C21 9.5474 20.2 8.0134 18.9665 7.0104C17.733 6.0074 17.0185 5.8154 15.5275 6.0074C14.0365 6.1994 13.2245 7.8019 12.004 7.8019C10.7835 7.8019 9.2965 6.2219 8.003 6.0074C6.709 5.7924 6 6.0074 4.88 7.0104C3.76 8.0134 3 9.5754 3 12.5154C3 15.4544 3.776 17.6334 5.2965 19.2454C6.1165 20.1149 6.765 20.7619 7.8745 21.2504C8.4345 21.4974 9.0135 21.4574 9.642 21.3114C10.271 21.1664 10.771 20.5114 12 20.5114V20.5104Z" stroke="#FFBB07" stroke-width="2"/>
<path d="M12.0045 7.8015C12.3968 3.93383 14.0637 2 17.005 2C17.275 2.81367 17.3447 3.6015 17.214 4.3635C17.1523 4.72517 16.9602 5.241 16.6375 5.911M7.11449 13C6.97616 13.673 6.97616 14.3658 7.11449 15.0785C7.25249 15.7908 7.54699 16.3408 7.99799 16.7285" stroke="#FFBB07" stroke-width="2" stroke-linecap="round"/>
</svg>
