<svg viewBox="0 0 24 24" xmlns="http://www.w3.org/2000/svg" xmlns:xlink="http://www.w3.org/1999/xlink" width="24.000000" height="24.000000" fill="none">
	<rect id="icon-park-outline:rice" width="24.000000" height="24.000000" x="0.000000" y="0.000000" fill="rgb(255,255,255)" fill-opacity="0" />
	<g id="Group">
		<path id="Vector" d="M20.5 10.5L3.5 10.5C3.5 15.4705 7.3055 19 12 19C16.6945 19 20.5 15.4705 20.5 10.5ZM15 10.5C15 7.7385 12.8735 5.5 10.25 5.5C7.6265 5.5 5.5 7.7385 5.5 10.5" fill-rule="nonzero" stroke="rgb(0,0,0)" stroke-width="2" />
		<path id="Vector" d="M19.5 10.5C19.5 8.843 18.117 7.5 16.411 7.5C15.6895 7.5 15.026 7.74 14.5 8.143" fill-rule="nonzero" stroke="rgb(0,0,0)" stroke-width="2" />
		<path id="Vector" d="M16.5 7.5L18 2.5M19 9L21 5.5" fill-rule="nonzero" stroke="rgb(0,0,0)" stroke-linecap="round" stroke-width="2" />
		<path id="Vector" d="M9 18.5L8 21.5L16 21.5L15 18.5" fill-rule="nonzero" stroke="rgb(0,0,0)" stroke-linecap="round" stroke-linejoin="round" stroke-width="2" />
	</g>
</svg>
