<svg viewBox="0 0 16 16" xmlns="http://www.w3.org/2000/svg" xmlns:xlink="http://www.w3.org/1999/xlink" width="16.000000" height="16.000000" fill="none">
	<rect id="icon-park-outline:notebook-one" width="16.000000" height="16.000000" x="0.000000" y="0.000000" fill="rgb(255,255,255)" fill-opacity="0" />
	<g id="Group">
		<path id="Vector" d="M2.86177 1.52858C2.98679 1.40355 3.15636 1.33331 3.33317 1.33331L12.6665 1.33331C12.8433 1.33331 13.0129 1.40355 13.1379 1.52858C13.2629 1.6536 13.3332 1.82317 13.3332 1.99998L13.3332 14C13.3332 14.1768 13.2629 14.3464 13.1379 14.4714C13.0129 14.5964 12.8433 14.6666 12.6665 14.6666L3.33317 14.6666C3.15636 14.6666 2.98679 14.5964 2.86177 14.4714C2.73674 14.3464 2.6665 14.1768 2.6665 14L2.6665 1.99998C2.6665 1.82317 2.73674 1.6536 2.86177 1.52858Z" fill-rule="nonzero" stroke="rgb(142.231,142.231,142.231)" stroke-linejoin="round" stroke-width="1.5" />
		<path id="Vector" d="M5.3335 1.33331L5.3335 14.6666M8.00016 3.99998L10.6668 3.99998M8.00016 6.66665L10.6668 6.66665M3.3335 1.33331L7.3335 1.33331M3.3335 14.6666L7.3335 14.6666" fill-rule="nonzero" stroke="rgb(142.231,142.231,142.231)" stroke-linecap="round" stroke-linejoin="round" stroke-width="1.5" />
	</g>
</svg>
