<svg viewBox="0 0 24 24" xmlns="http://www.w3.org/2000/svg" xmlns:xlink="http://www.w3.org/1999/xlink" width="24.000000" height="24.000000" fill="none">
	<rect id="icon-park-outline:cake-five" width="24.000000" height="24.000000" x="0.000000" y="0.000000" fill="rgb(255,255,255)" fill-opacity="0" />
	<g id="Group">
		<path id="Vector" d="M4.5 13.5L19.5 13.5M17.1565 22L6.843 22L4.5 13.5C4.5 10.75 7.25 9.5 7.25 9.5C7.25 8.5 8.25 5.5 12 5.5C15.75 5.5 16.75 8.5 16.75 9.5C16.75 9.5 19.5 10.75 19.5 13.5L17.1565 22Z" fill-rule="nonzero" stroke="rgb(0,0,0)" stroke-linecap="round" stroke-linejoin="round" stroke-width="2" />
		<path id="Vector" d="M3 13.5L21 13.5" stroke="rgb(0,0,0)" stroke-linecap="round" stroke-width="2" />
		<path id="Vector" d="M14 6C14 5.46957 13.7893 4.96086 13.4142 4.58579C13.0391 4.21071 12.5304 4 12 4C11.4696 4 10.9609 4.21071 10.5858 4.58579C10.2107 4.96086 10 5.46957 10 6" fill-rule="nonzero" stroke="rgb(0,0,0)" stroke-width="2" />
		<path id="Vector" d="M12 4L14 2" fill-rule="nonzero" stroke="rgb(0,0,0)" stroke-linecap="round" stroke-width="2" />
		<path id="Vector" d="M10 13.5L10 22M14 13.5L14 22" fill-rule="nonzero" stroke="rgb(0,0,0)" stroke-width="2" />
	</g>
</svg>
