<svg width="24" height="24" viewBox="0 0 24 24" fill="none" xmlns="http://www.w3.org/2000/svg">
<path d="M12 9.004V4C12 3.46957 12.2107 2.96086 12.5858 2.58579C12.9609 2.21071 13.4696 2 14 2M18 9.004V6C18 5.46957 18.2107 4.96086 18.5858 4.58579C18.9609 4.21071 19.4696 4 20 4M6 9.004V6C6 5.46957 6.21071 4.96086 6.58579 4.58579C6.96086 4.21071 7.46957 4 8 4M16 22C16 22 16 20.068 16.001 20.064C16.8757 19.6293 17.6738 19.0551 18.364 18.364C19.2011 17.5293 19.8649 16.5373 20.3172 15.4451C20.7696 14.353 21.0016 13.1821 21 12H3C3 14.485 4.0075 16.735 5.636 18.364C6.32878 19.0564 7.12936 19.6317 8.0065 20.0675L8 22H16Z" stroke="#FE8700" stroke-width="2" stroke-linecap="round" stroke-linejoin="round"/>
</svg>
