<svg viewBox="0 0 48 48" xmlns="http://www.w3.org/2000/svg" xmlns:xlink="http://www.w3.org/1999/xlink" width="48.000000" height="48.000000" fill="none" customFrame="url(#clipPath_2)">
	<defs>
		<clipPath id="clipPath_2">
			<rect width="48.000000" height="48.000000" x="0.000000" y="0.000000" rx="16.000000" fill="rgb(255,255,255)" />
		</clipPath>
		<clipPath id="clipPath_3">
			<rect width="24.000000" height="24.000000" x="12.000000" y="12.000000" fill="rgb(255,255,255)" />
		</clipPath>
	</defs>
	<rect id="Frame 296" width="48.000000" height="48.000000" x="0.000000" y="0.000000" rx="16.000000" fill="rgb(232,242,242)" />
	<g id="icon-park-outline:calendar" clip-path="url(#clipPath_3)" customFrame="url(#clipPath_3)">
		<rect id="icon-park-outline:calendar" width="24.000000" height="24.000000" x="12.000000" y="12.000000" fill="rgb(255,255,255)" fill-opacity="0" />
		<g id="Group">
			<path id="Vector" d="M14.5 21.5L33.5 21.5M33.5 32C33.5 32.2652 33.3946 32.5196 33.2071 32.7071C33.0196 32.8946 32.7652 33 32.5 33L15.5 33C15.2348 33 14.9804 32.8946 14.7929 32.7071C14.6054 32.5196 14.5 32.2652 14.5 32L14.5 21.5L14.5 16.5C14.5 16.2348 14.6054 15.9804 14.7929 15.7929C14.9804 15.6054 15.2348 15.5 15.5 15.5L32.5 15.5C32.7652 15.5 33.0196 15.6054 33.2071 15.7929C33.3946 15.9804 33.5 16.2348 33.5 16.5L33.5 21.5L33.5 32Z" fill-rule="nonzero" stroke="rgb(51,113,121)" stroke-linejoin="round" stroke-width="2" />
			<path id="Vector" d="M20 14L20 18M28 14L28 18M26 29L29 29M19 29L22 29M26 25L29 25M19 25L22 25" fill-rule="nonzero" stroke="rgb(51,113,121)" stroke-linecap="round" stroke-linejoin="round" stroke-width="2" />
		</g>
	</g>
</svg>
