<svg viewBox="0 0 48 48" xmlns="http://www.w3.org/2000/svg" xmlns:xlink="http://www.w3.org/1999/xlink" width="48.000000" height="48.000000" fill="none" customFrame="url(#clipPath_0)">
	<defs>
		<clipPath id="clipPath_0">
			<rect width="48.000000" height="48.000000" x="0.000000" y="0.000000" rx="16.000000" fill="rgb(255,255,255)" />
		</clipPath>
		<clipPath id="clipPath_1">
			<rect width="24.000000" height="24.000000" x="12.000000" y="12.000000" fill="rgb(255,255,255)" />
		</clipPath>
	</defs>
	<rect id="Frame 296" width="48.000000" height="48.000000" x="0.000000" y="0.000000" rx="16.000000" fill="rgb(232,242,242)" />
	<g id="icon-park-outline:shopping-bag-one" clip-path="url(#clipPath_1)" customFrame="url(#clipPath_1)">
		<rect id="icon-park-outline:shopping-bag-one" width="24.000000" height="24.000000" x="12.000000" y="12.000000" fill="rgb(255,255,255)" fill-opacity="0" />
		<g id="Group">
			<path id="Vector" d="M29.5 18C30.3284 18 31 18.6716 31 19.5L31 31.5C31 32.3284 30.3284 33 29.5 33L18.5 33C17.6716 33 17 32.3284 17 31.5L17 19.5C17 18.6716 17.6716 18 18.5 18L29.5 18Z" stroke="rgb(51,113,121)" stroke-linejoin="round" stroke-width="2" />
			<path id="Vector" d="M27 21L27 17C27 16.2043 26.6839 15.4413 26.1213 14.8787C25.5587 14.3161 24.7957 14 24 14C23.2043 14 22.4413 14.3161 21.8787 14.8787C21.3161 15.4413 21 16.2043 21 17L21 21" fill-rule="nonzero" stroke="rgb(51,113,121)" stroke-linecap="round" stroke-linejoin="round" stroke-width="2" />
		</g>
	</g>
</svg>
