<svg viewBox="0 0 48 48" xmlns="http://www.w3.org/2000/svg" xmlns:xlink="http://www.w3.org/1999/xlink" width="48.000000" height="48.000000" fill="none" customFrame="url(#clipPath_8)">
	<defs>
		<clipPath id="clipPath_8">
			<rect width="48.000000" height="48.000000" x="0.000000" y="0.000000" rx="16.000000" fill="rgb(255,255,255)" />
		</clipPath>
		<clipPath id="clipPath_9">
			<rect width="24.000000" height="24.000000" x="12.000000" y="12.000000" fill="rgb(255,255,255)" />
		</clipPath>
	</defs>
	<rect id="Frame 297" width="48.000000" height="48.000000" x="0.000000" y="0.000000" rx="16.000000" fill="rgb(232,242,242)" />
	<g id="icon-park-outline:headset-one" clip-path="url(#clipPath_9)" customFrame="url(#clipPath_9)">
		<rect id="icon-park-outline:headset-one" width="24.000000" height="24.000000" x="12.000000" y="12.000000" fill="rgb(255,255,255)" fill-opacity="0" />
		<g id="Group">
			<path id="Vector" d="M30.6829 27.4334C30.4597 27.4778 30.2321 27.5 30 27.5L30 28C31.0609 28 32.0783 27.5786 32.8284 26.8284C33.5786 26.0783 34 25.0609 34 24C34 22.9391 33.5786 21.9217 32.8284 21.1716C32.0783 20.4214 31.0609 20 30 20L30 20.5C30.2321 20.5 30.4597 20.5222 30.6829 20.5666C30.9062 20.611 31.125 20.6776 31.3394 20.7664C31.5538 20.8552 31.7556 20.9629 31.9449 21.0893C32.1341 21.2158 32.3108 21.361 32.4749 21.5251C32.639 21.6892 32.7842 21.8659 32.9107 22.0551C33.0371 22.2444 33.1448 22.4462 33.2336 22.6606C33.3224 22.875 33.389 23.0938 33.4334 23.3171C33.4778 23.5403 33.5 23.7679 33.5 24C33.5 24.2321 33.4778 24.4597 33.4334 24.6829C33.389 24.9062 33.3224 25.125 33.2336 25.3394C33.1448 25.5538 33.0371 25.7556 32.9107 25.9449C32.7842 26.1341 32.639 26.3108 32.4749 26.4749C32.3108 26.639 32.1341 26.7843 31.9448 26.9107C31.7556 27.0371 31.5538 27.1448 31.3394 27.2336C31.125 27.3224 30.9062 27.389 30.6829 27.4334Z" fill="rgb(51,113,121)" fill-rule="evenodd" />
			<path id="Vector" d="M30 28C31.0609 28 32.0783 27.5786 32.8284 26.8284C33.5786 26.0783 34 25.0609 34 24C34 22.9391 33.5786 21.9217 32.8284 21.1716C32.0783 20.4214 31.0609 20 30 20" fill-rule="nonzero" stroke="rgb(51,113,121)" stroke-linejoin="round" stroke-width="2" />
			<path id="Vector" d="M18 20C16.9391 20 15.9217 20.4214 15.1716 21.1716C14.4214 21.9217 14 22.9391 14 24C14 25.0609 14.4214 26.0783 15.1716 26.8284C15.9217 27.5786 16.9391 28 18 28" fill-rule="nonzero" />
			<path id="Vector" d="M18 20C16.9391 20 15.9217 20.4214 15.1716 21.1716C14.4214 21.9217 14 22.9391 14 24C14 25.0609 14.4214 26.0783 15.1716 26.8284C15.9217 27.5786 16.9391 28 18 28" fill-rule="nonzero" stroke="rgb(51,113,121)" stroke-linejoin="round" stroke-width="2" />
			<path id="Vector" d="M18 28L18 20C18 16.6865 20.6865 14 24 14C27.3135 14 30 16.6865 30 20L30 28C30 31.3135 27.3135 34 24 34" fill-rule="nonzero" stroke="rgb(51,113,121)" stroke-linecap="round" stroke-linejoin="round" stroke-width="2" />
		</g>
	</g>
</svg>
