<svg viewBox="0 0 40 40" xmlns="http://www.w3.org/2000/svg" xmlns:xlink="http://www.w3.org/1999/xlink" width="40.000000" height="40.000000" fill="none" customFrame="url(#clipPath_8)">
	<defs>
		<clipPath id="clipPath_8">
			<rect width="40.000000" height="40.000000" x="0.000000" y="0.000000" rx="20.000000" fill="rgb(255,255,255)" />
		</clipPath>
		<clipPath id="clipPath_9">
			<rect width="20.000000" height="20.000000" x="10.000000" y="10.000000" fill="rgb(255,255,255)" />
		</clipPath>
	</defs>
	<rect id="Frame 296" width="40.000000" height="40.000000" x="0.000000" y="0.000000" rx="20.000000" fill="rgb(217,217,217)" />
	<g id="icon-park-outline:headset-one" clip-path="url(#clipPath_9)" customFrame="url(#clipPath_9)">
		<rect id="icon-park-outline:headset-one" width="20.000000" height="20.000000" x="10.000000" y="10.000000" fill="rgb(255,255,255)" fill-opacity="0" />
		<g id="Group">
			<path id="Vector" d="M25 23.3334C25.8841 23.3334 26.7319 22.9822 27.357 22.357C27.9821 21.7319 28.3333 20.8841 28.3333 20C28.3333 19.116 27.9821 18.2681 27.357 17.643C26.7319 17.0179 25.8841 16.6667 25 16.6667" fill-rule="nonzero" />
			<path id="Vector" d="M25 23.3334C25.8841 23.3334 26.7319 22.9822 27.357 22.357C27.9821 21.7319 28.3333 20.8841 28.3333 20C28.3333 19.116 27.9821 18.2681 27.357 17.643C26.7319 17.0179 25.8841 16.6667 25 16.6667" fill-rule="nonzero" stroke="rgb(0,0,0)" stroke-linejoin="round" stroke-width="2" />
			<path id="Vector" d="M14.9993 16.6667C14.1153 16.6667 13.2674 17.0179 12.6423 17.643C12.0172 18.2681 11.666 19.116 11.666 20C11.666 20.8841 12.0172 21.7319 12.6423 22.357C13.2674 22.9822 14.1153 23.3334 14.9993 23.3334" fill-rule="nonzero" />
			<path id="Vector" d="M14.9993 16.6667C14.1153 16.6667 13.2674 17.0179 12.6423 17.643C12.0172 18.2681 11.666 19.116 11.666 20C11.666 20.8841 12.0172 21.7319 12.6423 22.357C13.2674 22.9822 14.1153 23.3334 14.9993 23.3334" fill-rule="nonzero" stroke="rgb(0,0,0)" stroke-linejoin="round" stroke-width="2" />
			<path id="Vector" d="M15 23.3334L15 16.6667C15 13.9054 17.2388 11.6667 20 11.6667C22.7612 11.6667 25 13.9054 25 16.6667L25 23.3334C25 26.0946 22.7612 28.3334 20 28.3334" fill-rule="nonzero" stroke="rgb(0,0,0)" stroke-linecap="round" stroke-linejoin="round" stroke-width="2" />
		</g>
	</g>
</svg>
