<svg viewBox="0 0 48 48" xmlns="http://www.w3.org/2000/svg" xmlns:xlink="http://www.w3.org/1999/xlink" width="48.000000" height="48.000000" fill="none" customFrame="url(#clipPath_6)">
	<defs>
		<clipPath id="clipPath_6">
			<rect width="48.000000" height="48.000000" x="0.000000" y="0.000000" rx="16.000000" fill="rgb(255,255,255)" />
		</clipPath>
		<clipPath id="clipPath_7">
			<rect width="24.000000" height="24.000000" x="12.000000" y="12.000000" fill="rgb(255,255,255)" />
		</clipPath>
	</defs>
	<rect id="Frame 296" width="48.000000" height="48.000000" x="0.000000" y="0.000000" rx="16.000000" fill="rgb(232,242,242)" />
	<g id="icon-park-outline:remind" clip-path="url(#clipPath_7)" customFrame="url(#clipPath_7)">
		<rect id="icon-park-outline:remind" width="24.000000" height="24.000000" x="12.000000" y="12.000000" fill="rgb(255,255,255)" fill-opacity="0" />
		<g id="Group">
			<path id="Vector" d="M17 21C17 17.134 20.134 14 24 14C27.866 14 31 17.134 31 21L31 31L17 31L17 21ZM17.5 30.5L30.5 30.5L30.5 21C30.5 20.5081 30.447 20.0282 30.3411 19.5603C30.2572 19.1894 30.1399 18.826 29.9894 18.4701C29.8359 18.1071 29.6528 17.7634 29.4402 17.4391C29.1974 17.0688 28.9161 16.7237 28.5962 16.4038C28.2763 16.0839 27.9312 15.8025 27.5607 15.5597C27.2365 15.3472 26.8929 15.1641 26.5299 15.0106C26.1741 14.8601 25.8106 14.7428 25.4397 14.6589C24.9718 14.553 24.4919 14.5 24 14.5C23.5081 14.5 23.0282 14.553 22.5603 14.6589C22.1893 14.7428 21.8259 14.8601 21.4701 15.0106C21.1071 15.1641 20.7635 15.3472 20.4392 15.5598C20.0688 15.8026 19.7237 16.0839 19.4038 16.4038C19.0839 16.7237 18.8026 17.0688 18.5598 17.4392C18.3472 17.7634 18.1641 18.1071 18.0106 18.4701C17.8601 18.8259 17.7428 19.1894 17.6589 19.5603C17.553 20.0282 17.5 20.5081 17.5 21L17.5 30.5Z" fill="rgb(51,113,121)" fill-rule="evenodd" />
			<path id="Vector" d="M17 31L17 21C17 17.134 20.134 14 24 14C27.866 14 31 17.134 31 21L31 31M14 31L34 31M25.7678 33.2678C26.2366 32.7989 26.5 32.163 26.5 31.5L26.5 31L21.5 31L21.5 31.5C21.5 32.163 21.7634 32.7989 22.2322 33.2678C22.7011 33.7366 23.337 34 24 34C24.663 34 25.2989 33.7366 25.7678 33.2678Z" fill-rule="nonzero" stroke="rgb(51,113,121)" stroke-linecap="round" stroke-linejoin="round" stroke-width="2" />
		</g>
	</g>
</svg>
