<svg viewBox="0 0 40 40" xmlns="http://www.w3.org/2000/svg" xmlns:xlink="http://www.w3.org/1999/xlink" width="40.000000" height="40.000000" fill="none" customFrame="url(#clipPath_0)">
	<defs>
		<clipPath id="clipPath_0">
			<rect width="40.000000" height="40.000000" x="0.000000" y="0.000000" rx="20.000000" fill="rgb(255,255,255)" />
		</clipPath>
		<clipPath id="clipPath_1">
			<rect width="20.000000" height="20.000000" x="10.000000" y="10.000000" fill="rgb(255,255,255)" />
		</clipPath>
	</defs>
	<rect id="Frame 296" width="40.000000" height="40.000000" x="0.000000" y="0.000000" rx="20.000000" fill="rgb(217,217,217)" />
	<g id="icon-park-outline:people" clip-path="url(#clipPath_1)" customFrame="url(#clipPath_1)">
		<rect id="icon-park-outline:people" width="20.000000" height="20.000000" x="10.000000" y="10.000000" fill="rgb(255,255,255)" fill-opacity="0" />
		<path id="Vector" d="M21.1162 18.1113C21.47 17.9647 21.7916 17.7499 22.0624 17.4791C22.3332 17.2082 22.5481 16.8867 22.6946 16.5328C22.8412 16.179 22.9167 15.7997 22.9167 15.4167C22.9167 15.0336 22.8412 14.6544 22.6946 14.3005C22.5481 13.9466 22.3332 13.6251 22.0624 13.3543C21.7916 13.0834 21.47 12.8686 21.1162 12.722C20.7623 12.5754 20.383 12.5 20 12.5C19.2265 12.5 18.4846 12.8073 17.9376 13.3543C17.3906 13.9013 17.0833 14.6431 17.0833 15.4167C17.0833 16.1902 17.3906 16.9321 17.9376 17.4791C18.4846 18.026 19.2265 18.3333 20 18.3333C20.383 18.3333 20.7623 18.2579 21.1162 18.1113ZM12.5 27.5L27.5 27.5L27.5 27C27.5 25.1333 27.5 24.2 27.1367 23.4867C26.8171 22.8595 26.3072 22.3496 25.68 22.03C24.9667 21.6667 24.0333 21.6667 22.1667 21.6667L17.8333 21.6667C15.9667 21.6667 15.0333 21.6667 14.32 22.03C13.6928 22.3496 13.1829 22.8595 12.8633 23.4867C12.5 24.2 12.5 25.1333 12.5 27L12.5 27.5Z" fill-rule="nonzero" stroke="rgb(0,0,0)" stroke-linecap="round" stroke-linejoin="round" stroke-width="2" />
	</g>
</svg>
