<svg viewBox="0 0 48 48" xmlns="http://www.w3.org/2000/svg" xmlns:xlink="http://www.w3.org/1999/xlink" width="48.000000" height="48.000000" fill="none" customFrame="url(#clipPath_2)">
	<defs>
		<clipPath id="clipPath_2">
			<rect width="48.000000" height="48.000000" x="0.000000" y="0.000000" rx="16.000000" fill="rgb(255,255,255)" />
		</clipPath>
		<clipPath id="clipPath_3">
			<rect width="24.000000" height="24.000000" x="12.000000" y="12.000000" fill="rgb(255,255,255)" />
		</clipPath>
	</defs>
	<rect id="Frame 296" width="48.000000" height="48.000000" x="0.000000" y="0.000000" rx="16.000000" fill="rgb(232,242,242)" />
	<g id="icon-park-outline:book-open" clip-path="url(#clipPath_3)" customFrame="url(#clipPath_3)">
		<rect id="icon-park-outline:book-open" width="24.000000" height="24.000000" x="12.000000" y="12.000000" fill="rgb(255,255,255)" fill-opacity="0" />
		<path id="Vector" d="M24 33C24 32.2044 23.6839 31.4413 23.1213 30.8787C22.5587 30.3161 21.7957 30 21 30L14.5 30L14.5 15.5L20 15.5C21.0609 15.5 22.0783 15.9214 22.8284 16.6716C23.5786 17.4217 24 18.4391 24 19.5L24 33M24 33C24 32.2044 24.3161 31.4413 24.8787 30.8787C25.4413 30.3161 26.2043 30 27 30L33.5 30L33.5 15.5L28 15.5C26.9391 15.5 25.9217 15.9214 25.1716 16.6716C24.4214 17.4217 24 18.4391 24 19.5" fill-rule="nonzero" stroke="rgb(51,113,121)" stroke-linejoin="round" stroke-width="2" />
	</g>
</svg>
