<svg viewBox="0 0 36 36" xmlns="http://www.w3.org/2000/svg" xmlns:xlink="http://www.w3.org/1999/xlink" width="36.000000" height="36.000000" fill="none" clip-path="url(#clipPath_2)" customFrame="url(#clipPath_2)">
	<defs>
		<clipPath id="clipPath_2">
			<rect width="36.000000" height="36.000000" x="0.000000" y="0.000000" rx="8.000000" fill="rgb(255,255,255)" transform="matrix(-1,0,0,1,36,0)" />
		</clipPath>
		<clipPath id="clipPath_3">
			<rect width="20.000000" height="20.000000" x="8.000000" y="8.000000" fill="rgb(255,255,255)" />
		</clipPath>
	</defs>
	<rect id="Save Button" width="36.000000" height="36.000000" x="0.000000" y="0.000000" rx="8.000000" fill="rgb(252.195,252.535,252.705)" transform="matrix(-1,0,0,1,36,0)" />
	<g id="icon-park-outline:tag" clip-path="url(#clipPath_3)" customFrame="url(#clipPath_3)">
		<rect id="icon-park-outline:tag" width="20.000000" height="20.000000" x="8.000000" y="8.000000" fill="rgb(255,255,255)" fill-opacity="0" />
		<g id="Group">
			<path id="Vector" d="M11.3334 26.3334L11.3334 10.5C11.3334 10.279 11.4212 10.067 11.5775 9.91076C11.7337 9.75448 11.9457 9.66669 12.1667 9.66669L23.8334 9.66669C24.0544 9.66669 24.2663 9.75448 24.4226 9.91076C24.5789 10.067 24.6667 10.279 24.6667 10.5L24.6667 26.3334L18 22.8863L11.3334 26.3334Z" fill="rgb(167,214,217)" fill-rule="nonzero" />
		</g>
	</g>
</svg>
