<svg viewBox="0 0 24 24" xmlns="http://www.w3.org/2000/svg" xmlns:xlink="http://www.w3.org/1999/xlink" width="24.000000" height="24.000000" fill="none">
	<rect id="icon-park-outline:camera" width="24.000000" height="24.000000" x="0.000000" y="0.000000" fill="rgb(255,255,255)" fill-opacity="0" />
	<g id="Group">
		<path id="Vector" d="M9 3L15 3L16.5 6L7.5 6L9 3Z" fill-rule="nonzero" stroke="rgb(36,79,85)" stroke-linejoin="round" stroke-width="2" />
		<path id="Vector" d="M20.5 6C21.3284 6 22 6.67157 22 7.5L22 19.5C22 20.3284 21.3284 21 20.5 21L3.5 21C2.67157 21 2 20.3284 2 19.5L2 7.5C2 6.67157 2.67157 6 3.5 6L20.5 6Z" stroke="rgb(36,79,85)" stroke-linejoin="round" stroke-width="2" />
		<path id="Vector" d="M14.8284 16.3284C15.5786 15.5783 16 14.5609 16 13.5C16 12.4391 15.5786 11.4217 14.8284 10.6716C14.0783 9.92143 13.0609 9.5 12 9.5C10.9391 9.5 9.92172 9.92143 9.17157 10.6716C8.42143 11.4217 8 12.4391 8 13.5C8 14.5609 8.42143 15.5783 9.17157 16.3284C9.92172 17.0786 10.9391 17.5 12 17.5C13.0609 17.5 14.0783 17.0786 14.8284 16.3284Z" fill-rule="nonzero" stroke="rgb(36,79,85)" stroke-linejoin="round" stroke-width="2" />
	</g>
</svg>
