<svg viewBox="0 0 24 24" xmlns="http://www.w3.org/2000/svg" xmlns:xlink="http://www.w3.org/1999/xlink" width="24.000000" height="24.000000" fill="none">
	<rect id="icon-park-outline:vip-one" width="24.000000" height="24.000000" x="0.000000" y="0.000000" fill="rgb(255,255,255)" fill-opacity="0" />
	<g id="Group">
		<path id="Vector" d="M6.25791 3.83602C6.35826 3.72913 6.47961 3.64412 6.61434 3.5863C6.74907 3.52849 6.89429 3.49911 7.04091 3.50002L16.9589 3.50002C17.1055 3.49911 17.2507 3.52849 17.3855 3.5863C17.5202 3.64412 17.6416 3.72913 17.7419 3.83602L21.7484 8.18302C21.9129 8.35777 22.003 8.58961 21.9997 8.82956C21.9965 9.06951 21.9001 9.29881 21.7309 9.46902L12.3749 20.075C12.328 20.1282 12.2703 20.1708 12.2056 20.2C12.141 20.2292 12.0708 20.2443 11.9999 20.2443C11.929 20.2443 11.8588 20.2292 11.7942 20.2C11.7295 20.1708 11.6718 20.1282 11.6249 20.075L2.26891 9.46902C2.09974 9.29881 2.00335 9.06951 2.00009 8.82956C1.99682 8.58961 2.08694 8.35777 2.25141 8.18302L6.25791 3.83602Z" fill-rule="nonzero" stroke="rgb(252.195,252.535,252.705)" stroke-linecap="round" stroke-linejoin="round" stroke-width="2" />
		<path id="Vector" d="M8 10L12 14.5L16 10" fill-rule="nonzero" stroke="rgb(252.195,252.535,252.705)" stroke-linecap="round" stroke-linejoin="round" stroke-width="2" />
	</g>
</svg>
