<svg viewBox="0 0 24 24" xmlns="http://www.w3.org/2000/svg" xmlns:xlink="http://www.w3.org/1999/xlink" width="24.000000" height="24.000000" fill="none">
	<rect id="icon-park-outline:printer-one" width="24.000000" height="24.000000" x="0.000000" y="0.000000" fill="rgb(255,255,255)" fill-opacity="0" />
	<g id="Group">
		<path id="Vector" d="M16 16.5L21 16.5C21.2652 16.5 21.5196 16.3946 21.7071 16.2071C21.8946 16.0196 22 15.7652 22 15.5L22 7.5C22 7.23478 21.8946 6.98043 21.7071 6.79289C21.5196 6.60536 21.2652 6.5 21 6.5L16 6.5M8 16.5L3 16.5C2.73478 16.5 2.48043 16.3946 2.29289 16.2071C2.10536 16.0196 2 15.7652 2 15.5L2 7.5C2 7.23478 2.10536 6.98043 2.29289 6.79289C2.48043 6.60536 2.73478 6.5 3 6.5L8 6.5" fill-rule="nonzero" stroke="rgb(37,48,62)" stroke-linecap="round" stroke-linejoin="round" stroke-width="2" />
		<path id="Vector" d="M6 6.5L6 9.5L18 9.5L18 6.5M8 6.5L8 2.5L16 2.5L16 6.5M8 14.5L8 21.5L16 21.5L16 14.5M11 17.5L13 17.5M6.5 13.5L17.5 13.5" fill-rule="nonzero" stroke="rgb(37,48,62)" stroke-linecap="round" stroke-linejoin="round" stroke-width="2" />
	</g>
</svg>
