<svg viewBox="0 0 20 20" xmlns="http://www.w3.org/2000/svg" xmlns:xlink="http://www.w3.org/1999/xlink" width="20.000000" height="20.000000" fill="none">
	<rect id="icon-park-outline:good-two" width="20.000000" height="20.000000" x="0.000000" y="0.000000" fill="rgb(255,255,255)" fill-opacity="0" />
	<path id="Vector" d="M1.78653 8.89862C1.8237 8.78927 1.88319 8.68885 1.96124 8.60371C2.03928 8.51858 2.13417 8.45059 2.23988 8.40408C2.34559 8.35756 2.45982 8.33352 2.57531 8.33349L4.16656 8.33349C4.38757 8.33349 4.59954 8.42129 4.75582 8.57757C4.9121 8.73385 4.99989 8.94581 4.99989 9.16683L4.99989 17.0835C4.99989 17.3045 4.9121 17.5165 4.75582 17.6727C4.59954 17.829 4.38757 17.9168 4.16656 17.9168L3.26406 17.9168C3.05549 17.9169 2.85448 17.8387 2.70074 17.6978C2.54699 17.5568 2.45169 17.3634 2.43364 17.1556L1.74531 9.23891C1.73532 9.12385 1.74936 9.00797 1.78653 8.89862ZM8.03114 8.09808C8.71823 7.77391 9.88864 7.12266 10.4166 6.24224C11.097 5.10724 11.2253 3.05683 11.2461 2.58724C11.2491 2.52141 11.2474 2.45558 11.2561 2.39058C11.3691 1.57683 12.9395 2.52724 13.5416 3.53224C13.8686 4.07724 13.9103 4.79349 13.8761 5.35308C13.8391 5.95141 13.6636 6.52933 13.4916 7.10349L13.1249 8.32724L17.6486 8.32724C17.7774 8.32724 17.9044 8.35706 18.0197 8.41438C18.135 8.4717 18.2354 8.55496 18.3131 8.65761C18.3908 8.76027 18.4437 8.87954 18.4676 9.00606C18.4915 9.13258 18.4857 9.26291 18.4507 9.38683L16.2132 17.3102C16.1638 17.4849 16.0587 17.6387 15.9138 17.7483C15.769 17.8578 15.5923 17.917 15.4107 17.9168L8.33323 17.9168C8.11221 17.9168 7.90025 17.829 7.74397 17.6727C7.58769 17.5165 7.49989 17.3045 7.49989 17.0835L7.49989 8.90641C7.49989 8.55808 7.71656 8.24641 8.03114 8.09808Z" fill-rule="nonzero" stroke="rgb(37,48,62)" stroke-linecap="round" stroke-linejoin="round" stroke-width="1.5" />
</svg>
