<svg viewBox="0 0 24 24" xmlns="http://www.w3.org/2000/svg" xmlns:xlink="http://www.w3.org/1999/xlink" width="24.000000" height="24.000000" fill="none">
	<rect id="icon-park-outline:search" width="24.000000" height="24.000000" x="0.000000" y="0.000000" fill="rgb(255,255,255)" fill-opacity="0" />
	<g id="Group">
		<path id="Vector" d="M19 10.5C19 5.8055 15.1945 2 10.5 2C5.8055 2 2 5.8055 2 10.5C2 15.1945 5.8055 19 10.5 19C15.1945 19 19 15.1945 19 10.5Z" fill-rule="nonzero" stroke="rgb(139,139,139)" stroke-linejoin="round" stroke-width="2" />
		<path id="Vector" d="M13.3289 7.1715C12.9578 6.79963 12.5168 6.50471 12.0315 6.30367C11.5461 6.10264 11.0258 5.99944 10.5004 6C9.975 5.99944 9.45469 6.10264 8.96929 6.30367C8.4839 6.50471 8.043 6.79963 7.67188 7.1715M16.6114 16.611L20.8539 20.8535" fill-rule="nonzero" stroke="rgb(139,139,139)" stroke-linecap="round" stroke-linejoin="round" stroke-width="2" />
	</g>
</svg>
