<svg viewBox="0 0 24 24" xmlns="http://www.w3.org/2000/svg" xmlns:xlink="http://www.w3.org/1999/xlink" width="24.000000" height="24.000000" fill="none">
	<rect id="Property 1=Default" width="24.000000" height="24.000000" x="0.000000" y="0.000000" fill="rgb(255,255,255)" fill-opacity="0" />
	<g id="Group">
		<path id="Vector" d="M12 2C8.134 2 5 5.134 5 9L5 19L19 19L19 9C19 5.134 15.866 2 12 2Z" fill-rule="nonzero" />
		<path id="Vector" d="M5 19L5 9C5 5.134 8.134 2 12 2C15.866 2 19 5.134 19 9L19 19M2 19L22 19M13.7678 21.2678C14.2366 20.7989 14.5 20.163 14.5 19.5L14.5 19L9.5 19L9.5 19.5C9.5 20.163 9.76339 20.7989 10.2322 21.2678C10.7011 21.7366 11.337 22 12 22C12.663 22 13.2989 21.7366 13.7678 21.2678Z" fill-rule="nonzero" stroke="rgb(0,0,0)" stroke-linecap="round" stroke-linejoin="round" stroke-width="2" />
	</g>
</svg>
