<svg viewBox="0 0 20 20" xmlns="http://www.w3.org/2000/svg" xmlns:xlink="http://www.w3.org/1999/xlink" width="20.000000" height="20.000000" fill="none">
	<rect id="icon-park-outline:bad-two" width="20.000000" height="20.000000" x="0.000000" y="0.000000" fill="rgb(255,255,255)" fill-opacity="0" />
	<path id="Vector" d="M1.7839 11.5207C1.82134 11.6298 1.88101 11.7299 1.95915 11.8147C2.03728 11.8996 2.13217 11.9672 2.23782 12.0135C2.34347 12.0598 2.45756 12.0836 2.5729 12.0835L4.16665 12.0835C4.38766 12.0835 4.59962 11.9957 4.7559 11.8394C4.91218 11.6831 4.99998 11.4712 4.99998 11.2502L4.99998 2.91683C4.99998 2.69582 4.91218 2.48385 4.7559 2.32757C4.59962 2.17129 4.38766 2.0835 4.16665 2.0835L3.26664 2.0835C3.05761 2.08351 2.85622 2.16208 2.7024 2.30362C2.54858 2.44517 2.45358 2.63935 2.43623 2.84766L1.74164 11.181C1.73207 11.2959 1.74646 11.4116 1.7839 11.5207ZM8.03123 11.9027C8.71831 12.2264 9.88873 12.8777 10.4166 13.7585C11.0971 14.8931 11.2254 16.9435 11.2462 17.4131C11.2491 17.4789 11.2475 17.5447 11.2562 17.6097C11.3691 18.4235 12.9396 17.4731 13.5416 16.4681C13.8687 15.9231 13.9104 15.2068 13.8762 14.6472C13.8391 14.0493 13.6637 13.471 13.4916 12.8968L13.125 11.6731L17.6487 11.6731C17.7775 11.6731 17.9045 11.6433 18.0198 11.5859C18.1351 11.5286 18.2355 11.4454 18.3132 11.3427C18.3909 11.2401 18.4438 11.1208 18.4677 10.9943C18.4915 10.8677 18.4858 10.7374 18.4508 10.6135L16.2133 2.69016C16.1639 2.51541 16.0588 2.36158 15.9139 2.25207C15.7691 2.14256 15.5924 2.08337 15.4108 2.0835L8.33331 2.0835C8.1123 2.0835 7.90034 2.17129 7.74406 2.32757C7.58778 2.48385 7.49998 2.69582 7.49998 2.91683L7.49998 11.0943C7.49998 11.4422 7.71664 11.7539 8.03123 11.9027Z" fill-rule="nonzero" stroke="rgb(37,48,62)" stroke-linecap="round" stroke-linejoin="round" stroke-width="1.5" />
</svg>
