<svg viewBox="0 0 169.85 34" xmlns="http://www.w3.org/2000/svg" xmlns:xlink="http://www.w3.org/1999/xlink" width="169.850006" height="34.000000" fill="none" customFrame="#000000">
	<defs>
		<clipPath id="clipPath_0">
			<rect width="32.000000" height="32.000000" x="0.850000" y="1.000000" fill="rgb(255,255,255)" />
		</clipPath>
	</defs>
	<rect id="Logo + Text" width="169.000000" height="34.000000" x="0.850000" y="0.000000" />
	<g id="Logo" customFrame="url(#clipPath_0)">
		<rect id="Logo" width="32.000000" height="32.000000" x="0.850000" y="1.000000" fill="rgb(255,255,255)" fill-opacity="0" />
		<path id="Vector 2" d="M6.79258 18.1957L6.79258 21.3809C6.79258 23.0378 8.13573 24.3809 9.79258 24.3809L21.4002 24.3809C23.0571 24.3809 24.4002 23.0378 24.4002 21.3809L24.4002 18.1957M0.85 11.7895C0.85 9.80139 2.21459 5.78098 7.67296 5.60426C7.89306 5.38335 10.9744 -2.79002 19.1179 3.17433C19.1179 3.39523 29.2423 -2.56916 32.5438 7.37143C33.4778 10.1839 32.6758 16.4285 24.4002 18.1957L22.1993 18.1957L11.6347 18.1957L8.99354 18.1957L6.79258 18.1957C4.81172 17.8275 0.85 16.0308 0.85 11.7895ZM27.9218 12.2313C27.2615 13.9249 25.1926 17.4888 22.1993 18.1957M23.5505 12.5701C23.5505 13.3701 23.3304 14.0552 22.45 15M9.43373 13.5567C9.36036 14.3667 9.69784 16.4285 11.6347 18.1957M5.47201 13.1149C5.47201 14.2194 7.40885 17.1354 8.99354 18.1957M15.8165 28.1362C14.716 27.0317 12.295 25.7063 8.55334 29.0198C8.80891 28.7989 6.57248 30.1243 3.49115 27.9153C5.61874 30.9343 11.0624 35.9119 15.8165 30.787M23.074 29.0149C22.8596 28.8197 25.085 30.1068 28.1418 27.9153C26.0143 30.9343 20.5706 35.9119 15.8165 30.787L15.8165 28.1362C16.9164 27.0323 19.3356 25.7076 23.074 29.0149C23.0759 29.0165 23.0778 29.0182 23.0796 29.0198" fill-rule="nonzero" stroke="rgb(1,64,78)" stroke-linecap="round" stroke-linejoin="round" stroke-width="1.70000005" />
	</g>
	<path id="Smachno" d="M55.158 22.32C55.158 23.496 54.8687 24.5227 54.29 25.4C53.7113 26.2773 52.8713 26.9587 51.77 27.444C50.6873 27.9107 49.362 28.144 47.794 28.144C47.1033 28.144 46.422 28.0973 45.75 28.004C45.0967 27.9107 44.462 27.78 43.846 27.612C43.2487 27.4253 42.6793 27.2013 42.138 26.94L42.138 22.992C43.09 23.4027 44.07 23.7853 45.078 24.14C46.1047 24.476 47.122 24.644 48.13 24.644C48.8207 24.644 49.3713 24.5507 49.782 24.364C50.2113 24.1773 50.5193 23.9253 50.706 23.608C50.9113 23.2907 51.014 22.9267 51.014 22.516C51.014 22.012 50.8367 21.5827 50.482 21.228C50.146 20.8733 49.6887 20.5467 49.11 20.248C48.5313 19.9307 47.8687 19.5947 47.122 19.24C46.6553 19.016 46.1513 18.7547 45.61 18.456C45.0687 18.1387 44.546 17.756 44.042 17.308C43.5567 16.8413 43.1553 16.2813 42.838 15.628C42.5207 14.9747 42.362 14.1907 42.362 13.276C42.362 12.0813 42.6327 11.064 43.174 10.224C43.734 9.36533 44.518 8.712 45.526 8.264C46.5527 7.816 47.7567 7.592 49.138 7.592C50.1833 7.592 51.1727 7.71333 52.106 7.956C53.058 8.19867 54.0473 8.544 55.074 8.992L53.702 12.296C52.7873 11.9227 51.966 11.6333 51.238 11.428C50.51 11.2227 49.7633 11.12 48.998 11.12C48.4753 11.12 48.0273 11.204 47.654 11.372C47.2807 11.54 46.9913 11.7733 46.786 12.072C46.5993 12.3707 46.506 12.7253 46.506 13.136C46.506 13.6027 46.646 14.004 46.926 14.34C47.206 14.6573 47.626 14.9653 48.186 15.264C48.746 15.5627 49.446 15.9173 50.286 16.328C51.3127 16.8133 52.1807 17.3173 52.89 17.84C53.618 18.3627 54.178 18.9787 54.57 19.688C54.962 20.3973 55.158 21.2747 55.158 22.32ZM76.4039 12.296C78.1399 12.296 79.4465 12.744 80.3239 13.64C81.2199 14.5173 81.6679 15.936 81.6679 17.896L81.6679 27.864L77.4959 27.864L77.4959 18.932C77.4959 17.8307 77.3092 17.0093 76.9359 16.468C76.5625 15.908 75.9839 15.628 75.1999 15.628C74.0985 15.628 73.3145 16.02 72.8479 16.804C72.3812 17.588 72.1479 18.7173 72.1479 20.192L72.1479 27.864L67.9759 27.864L67.9759 18.932C67.9759 18.204 67.8919 17.5973 67.7239 17.112C67.5559 16.6267 67.3039 16.2627 66.9679 16.02C66.6319 15.7587 66.2025 15.628 65.6799 15.628C64.9145 15.628 64.3079 15.824 63.8599 16.216C63.4119 16.608 63.0945 17.1773 62.9079 17.924C62.7212 18.6707 62.6279 19.5853 62.6279 20.668L62.6279 27.864L58.4559 27.864L58.4559 12.576L61.6479 12.576L62.2079 14.536L62.4319 14.536C62.7492 14.0133 63.1412 13.5933 63.6079 13.276C64.0745 12.94 64.5879 12.6973 65.1479 12.548C65.7265 12.38 66.3052 12.296 66.8839 12.296C68.0039 12.296 68.9559 12.4827 69.7399 12.856C70.5239 13.2107 71.1212 13.7707 71.5319 14.536L71.8959 14.536C72.3625 13.752 73.0065 13.1827 73.8279 12.828C74.6679 12.4733 75.5265 12.296 76.4039 12.296ZM92.2357 12.268C94.289 12.268 95.857 12.716 96.9397 13.612C98.041 14.4893 98.5917 15.8427 98.5917 17.672L98.5917 27.864L95.6797 27.864L94.8677 25.792L94.7557 25.792C94.3264 26.3333 93.8784 26.7813 93.4117 27.136C92.9637 27.4907 92.441 27.7427 91.8437 27.892C91.265 28.06 90.5464 28.144 89.6877 28.144C88.7917 28.144 87.9797 27.976 87.2517 27.64C86.5424 27.2853 85.9824 26.7533 85.5717 26.044C85.161 25.316 84.9557 24.4013 84.9557 23.3C84.9557 21.676 85.525 20.4813 86.6637 19.716C87.8024 18.932 89.5104 18.5027 91.7877 18.428L94.4477 18.344L94.4477 17.672C94.4477 16.8693 94.233 16.2813 93.8037 15.908C93.393 15.5347 92.8144 15.348 92.0677 15.348C91.321 15.348 90.593 15.46 89.8837 15.684C89.1744 15.8893 88.465 16.1507 87.7557 16.468L86.3837 13.64C87.205 13.2107 88.1104 12.8747 89.0997 12.632C90.1077 12.3893 91.153 12.268 92.2357 12.268ZM92.8237 20.836C91.4797 20.8733 90.5464 21.116 90.0237 21.564C89.501 22.012 89.2397 22.6 89.2397 23.328C89.2397 23.9627 89.4264 24.42 89.7997 24.7C90.173 24.9613 90.6584 25.092 91.2557 25.092C92.1517 25.092 92.9077 24.8307 93.5237 24.308C94.1397 23.7667 94.4477 23.0107 94.4477 22.04L94.4477 20.78L92.8237 20.836ZM109.078 28.144C107.566 28.144 106.278 27.8733 105.214 27.332C104.15 26.772 103.338 25.9133 102.778 24.756C102.218 23.5987 101.938 22.1147 101.938 20.304C101.938 18.4373 102.255 16.916 102.89 15.74C103.525 14.564 104.402 13.696 105.522 13.136C106.661 12.576 107.967 12.296 109.442 12.296C110.487 12.296 111.393 12.3987 112.158 12.604C112.942 12.8093 113.623 13.052 114.202 13.332L112.97 16.552C112.317 16.2907 111.701 16.076 111.122 15.908C110.562 15.74 110.002 15.656 109.442 15.656C108.714 15.656 108.107 15.8333 107.622 16.188C107.137 16.524 106.773 17.0373 106.53 17.728C106.306 18.4 106.194 19.2493 106.194 20.276C106.194 21.284 106.315 22.124 106.558 22.796C106.819 23.4493 107.193 23.944 107.678 24.28C108.163 24.5973 108.751 24.756 109.442 24.756C110.319 24.756 111.094 24.644 111.766 24.42C112.438 24.1773 113.091 23.8507 113.726 23.44L113.726 26.996C113.091 27.4067 112.419 27.696 111.71 27.864C111.019 28.0507 110.142 28.144 109.078 28.144ZM121.417 10.924C121.417 11.6707 121.389 12.3893 121.333 13.08C121.296 13.7707 121.258 14.256 121.221 14.536L121.445 14.536C121.781 14.0133 122.173 13.5933 122.621 13.276C123.069 12.94 123.564 12.6973 124.105 12.548C124.665 12.38 125.253 12.296 125.869 12.296C126.97 12.296 127.932 12.492 128.753 12.884C129.574 13.276 130.209 13.8827 130.657 14.704C131.124 15.5253 131.357 16.5893 131.357 17.896L131.357 27.864L127.185 27.864L127.185 18.932C127.185 17.8307 126.98 17.0093 126.569 16.468C126.177 15.908 125.561 15.628 124.721 15.628C123.881 15.628 123.218 15.824 122.733 16.216C122.266 16.608 121.93 17.1773 121.725 17.924C121.52 18.6707 121.417 19.5853 121.417 20.668L121.417 27.864L117.245 27.864L117.245 6.584L121.417 6.584L121.417 10.924ZM144.327 12.296C145.97 12.296 147.286 12.744 148.275 13.64C149.265 14.5173 149.759 15.936 149.759 17.896L149.759 27.864L145.587 27.864L145.587 18.932C145.587 17.8307 145.391 17.0093 144.999 16.468C144.607 15.908 143.982 15.628 143.123 15.628C141.854 15.628 140.986 16.0667 140.519 16.944C140.053 17.8027 139.819 19.044 139.819 20.668L139.819 27.864L135.647 27.864L135.647 12.576L138.839 12.576L139.399 14.536L139.623 14.536C139.959 14.0133 140.37 13.5933 140.855 13.276C141.341 12.94 141.882 12.6973 142.479 12.548C143.077 12.38 143.693 12.296 144.327 12.296ZM167.938 20.192C167.938 21.4613 167.76 22.5907 167.406 23.58C167.07 24.5693 166.575 25.4093 165.922 26.1C165.287 26.772 164.512 27.2853 163.598 27.64C162.683 27.976 161.647 28.144 160.49 28.144C159.426 28.144 158.436 27.976 157.522 27.64C156.626 27.2853 155.851 26.772 155.198 26.1C154.544 25.4093 154.031 24.5693 153.658 23.58C153.303 22.5907 153.126 21.4613 153.126 20.192C153.126 18.4933 153.424 17.0653 154.022 15.908C154.619 14.732 155.478 13.836 156.598 13.22C157.718 12.604 159.043 12.296 160.574 12.296C162.011 12.296 163.28 12.604 164.382 13.22C165.483 13.836 166.351 14.732 166.986 15.908C167.62 17.0653 167.938 18.4933 167.938 20.192ZM157.382 20.192C157.382 21.2 157.484 22.0493 157.69 22.74C157.914 23.412 158.259 23.9253 158.726 24.28C159.192 24.616 159.799 24.784 160.546 24.784C161.292 24.784 161.89 24.616 162.338 24.28C162.804 23.9253 163.14 23.412 163.346 22.74C163.57 22.0493 163.682 21.2 163.682 20.192C163.682 19.184 163.57 18.344 163.346 17.672C163.14 17 162.804 16.496 162.338 16.16C161.871 15.824 161.264 15.656 160.518 15.656C159.416 15.656 158.614 16.0387 158.11 16.804C157.624 17.5507 157.382 18.68 157.382 20.192Z" fill="rgb(1,64,78)" fill-rule="nonzero" />
</svg>
