<svg viewBox="0 0 129 34" xmlns="http://www.w3.org/2000/svg" xmlns:xlink="http://www.w3.org/1999/xlink" width="129.000000" height="34.000000" fill="none" customFrame="#000000">
	<path id="Smachno" d="M14.308 22.32C14.308 23.496 14.0187 24.5227 13.44 25.4C12.8613 26.2773 12.0213 26.9587 10.92 27.444C9.83733 27.9107 8.512 28.144 6.944 28.144C6.25333 28.144 5.572 28.0973 4.9 28.004C4.24667 27.9107 3.612 27.78 2.996 27.612C2.39867 27.4253 1.82933 27.2013 1.288 26.94L1.288 22.992C2.24 23.4027 3.22 23.7853 4.228 24.14C5.25467 24.476 6.272 24.644 7.28 24.644C7.97067 24.644 8.52133 24.5507 8.932 24.364C9.36133 24.1773 9.66933 23.9253 9.856 23.608C10.0613 23.2907 10.164 22.9267 10.164 22.516C10.164 22.012 9.98667 21.5827 9.632 21.228C9.296 20.8733 8.83867 20.5467 8.26 20.248C7.68133 19.9307 7.01867 19.5947 6.272 19.24C5.80533 19.016 5.30133 18.7547 4.76 18.456C4.21867 18.1387 3.696 17.756 3.192 17.308C2.70667 16.8413 2.30533 16.2813 1.988 15.628C1.67067 14.9747 1.512 14.1907 1.512 13.276C1.512 12.0813 1.78267 11.064 2.324 10.224C2.884 9.36533 3.668 8.712 4.676 8.264C5.70267 7.816 6.90667 7.592 8.288 7.592C9.33333 7.592 10.3227 7.71333 11.256 7.956C12.208 8.19867 13.1973 8.544 14.224 8.992L12.852 12.296C11.9373 11.9227 11.116 11.6333 10.388 11.428C9.66 11.2227 8.91333 11.12 8.148 11.12C7.62533 11.12 7.17733 11.204 6.804 11.372C6.43067 11.54 6.14133 11.7733 5.936 12.072C5.74933 12.3707 5.656 12.7253 5.656 13.136C5.656 13.6027 5.796 14.004 6.076 14.34C6.356 14.6573 6.776 14.9653 7.336 15.264C7.896 15.5627 8.596 15.9173 9.436 16.328C10.4627 16.8133 11.3307 17.3173 12.04 17.84C12.768 18.3627 13.328 18.9787 13.72 19.688C14.112 20.3973 14.308 21.2747 14.308 22.32ZM35.5539 12.296C37.2899 12.296 38.5965 12.744 39.4739 13.64C40.3699 14.5173 40.8179 15.936 40.8179 17.896L40.8179 27.864L36.6459 27.864L36.6459 18.932C36.6459 17.8307 36.4592 17.0093 36.0859 16.468C35.7125 15.908 35.1339 15.628 34.3499 15.628C33.2485 15.628 32.4645 16.02 31.9979 16.804C31.5312 17.588 31.2979 18.7173 31.2979 20.192L31.2979 27.864L27.1259 27.864L27.1259 18.932C27.1259 18.204 27.0419 17.5973 26.8739 17.112C26.7059 16.6267 26.4539 16.2627 26.1179 16.02C25.7819 15.7587 25.3525 15.628 24.8299 15.628C24.0645 15.628 23.4579 15.824 23.0099 16.216C22.5619 16.608 22.2445 17.1773 22.0579 17.924C21.8712 18.6707 21.7779 19.5853 21.7779 20.668L21.7779 27.864L17.6059 27.864L17.6059 12.576L20.7979 12.576L21.3579 14.536L21.5819 14.536C21.8992 14.0133 22.2912 13.5933 22.7579 13.276C23.2245 12.94 23.7379 12.6973 24.2979 12.548C24.8765 12.38 25.4552 12.296 26.0339 12.296C27.1539 12.296 28.1059 12.4827 28.8899 12.856C29.6739 13.2107 30.2712 13.7707 30.6819 14.536L31.0459 14.536C31.5125 13.752 32.1565 13.1827 32.9779 12.828C33.8179 12.4733 34.6765 12.296 35.5539 12.296ZM51.3857 12.268C53.439 12.268 55.007 12.716 56.0897 13.612C57.191 14.4893 57.7417 15.8427 57.7417 17.672L57.7417 27.864L54.8297 27.864L54.0177 25.792L53.9057 25.792C53.4764 26.3333 53.0284 26.7813 52.5617 27.136C52.1137 27.4907 51.591 27.7427 50.9937 27.892C50.415 28.06 49.6964 28.144 48.8377 28.144C47.9417 28.144 47.1297 27.976 46.4017 27.64C45.6924 27.2853 45.1324 26.7533 44.7217 26.044C44.311 25.316 44.1057 24.4013 44.1057 23.3C44.1057 21.676 44.675 20.4813 45.8137 19.716C46.9524 18.932 48.6604 18.5027 50.9377 18.428L53.5977 18.344L53.5977 17.672C53.5977 16.8693 53.383 16.2813 52.9537 15.908C52.543 15.5347 51.9644 15.348 51.2177 15.348C50.471 15.348 49.743 15.46 49.0337 15.684C48.3244 15.8893 47.615 16.1507 46.9057 16.468L45.5337 13.64C46.355 13.2107 47.2604 12.8747 48.2497 12.632C49.2577 12.3893 50.303 12.268 51.3857 12.268ZM51.9737 20.836C50.6297 20.8733 49.6964 21.116 49.1737 21.564C48.651 22.012 48.3897 22.6 48.3897 23.328C48.3897 23.9627 48.5764 24.42 48.9497 24.7C49.323 24.9613 49.8084 25.092 50.4057 25.092C51.3017 25.092 52.0577 24.8307 52.6737 24.308C53.2897 23.7667 53.5977 23.0107 53.5977 22.04L53.5977 20.78L51.9737 20.836ZM68.2281 28.144C66.7161 28.144 65.4281 27.8733 64.3641 27.332C63.3001 26.772 62.4881 25.9133 61.9281 24.756C61.3681 23.5987 61.0881 22.1147 61.0881 20.304C61.0881 18.4373 61.4055 16.916 62.0401 15.74C62.6748 14.564 63.5521 13.696 64.6721 13.136C65.8108 12.576 67.1175 12.296 68.5921 12.296C69.6375 12.296 70.5428 12.3987 71.3081 12.604C72.0921 12.8093 72.7735 13.052 73.3521 13.332L72.1201 16.552C71.4668 16.2907 70.8508 16.076 70.2721 15.908C69.7121 15.74 69.1521 15.656 68.5921 15.656C67.8641 15.656 67.2575 15.8333 66.7721 16.188C66.2868 16.524 65.9228 17.0373 65.6801 17.728C65.4561 18.4 65.3441 19.2493 65.3441 20.276C65.3441 21.284 65.4655 22.124 65.7081 22.796C65.9695 23.4493 66.3428 23.944 66.8281 24.28C67.3135 24.5973 67.9015 24.756 68.5921 24.756C69.4695 24.756 70.2441 24.644 70.9161 24.42C71.5881 24.1773 72.2415 23.8507 72.8761 23.44L72.8761 26.996C72.2415 27.4067 71.5695 27.696 70.8601 27.864C70.1695 28.0507 69.2921 28.144 68.2281 28.144ZM80.5669 10.924C80.5669 11.6707 80.5389 12.3893 80.4829 13.08C80.4456 13.7707 80.4083 14.256 80.3709 14.536L80.5949 14.536C80.9309 14.0133 81.3229 13.5933 81.7709 13.276C82.2189 12.94 82.7136 12.6973 83.2549 12.548C83.8149 12.38 84.4029 12.296 85.0189 12.296C86.1203 12.296 87.0816 12.492 87.9029 12.884C88.7243 13.276 89.3589 13.8827 89.8069 14.704C90.2736 15.5253 90.5069 16.5893 90.5069 17.896L90.5069 27.864L86.3349 27.864L86.3349 18.932C86.3349 17.8307 86.1296 17.0093 85.7189 16.468C85.3269 15.908 84.7109 15.628 83.8709 15.628C83.0309 15.628 82.3683 15.824 81.8829 16.216C81.4163 16.608 81.0803 17.1773 80.8749 17.924C80.6696 18.6707 80.5669 19.5853 80.5669 20.668L80.5669 27.864L76.3949 27.864L76.3949 6.584L80.5669 6.584L80.5669 10.924ZM103.477 12.296C105.12 12.296 106.436 12.744 107.425 13.64C108.415 14.5173 108.909 15.936 108.909 17.896L108.909 27.864L104.737 27.864L104.737 18.932C104.737 17.8307 104.541 17.0093 104.149 16.468C103.757 15.908 103.132 15.628 102.273 15.628C101.004 15.628 100.136 16.0667 99.6693 16.944C99.2026 17.8027 98.9693 19.044 98.9693 20.668L98.9693 27.864L94.7973 27.864L94.7973 12.576L97.9893 12.576L98.5493 14.536L98.7733 14.536C99.1093 14.0133 99.52 13.5933 100.005 13.276C100.491 12.94 101.032 12.6973 101.629 12.548C102.227 12.38 102.843 12.296 103.477 12.296ZM127.088 20.192C127.088 21.4613 126.91 22.5907 126.556 23.58C126.22 24.5693 125.725 25.4093 125.072 26.1C124.437 26.772 123.662 27.2853 122.748 27.64C121.833 27.976 120.797 28.144 119.64 28.144C118.576 28.144 117.586 27.976 116.672 27.64C115.776 27.2853 115.001 26.772 114.348 26.1C113.694 25.4093 113.181 24.5693 112.808 23.58C112.453 22.5907 112.276 21.4613 112.276 20.192C112.276 18.4933 112.574 17.0653 113.172 15.908C113.769 14.732 114.628 13.836 115.748 13.22C116.868 12.604 118.193 12.296 119.724 12.296C121.161 12.296 122.43 12.604 123.532 13.22C124.633 13.836 125.501 14.732 126.136 15.908C126.77 17.0653 127.088 18.4933 127.088 20.192ZM116.532 20.192C116.532 21.2 116.634 22.0493 116.84 22.74C117.064 23.412 117.409 23.9253 117.876 24.28C118.342 24.616 118.949 24.784 119.696 24.784C120.442 24.784 121.04 24.616 121.488 24.28C121.954 23.9253 122.29 23.412 122.496 22.74C122.72 22.0493 122.832 21.2 122.832 20.192C122.832 19.184 122.72 18.344 122.496 17.672C122.29 17 121.954 16.496 121.488 16.16C121.021 15.824 120.414 15.656 119.668 15.656C118.566 15.656 117.764 16.0387 117.26 16.804C116.774 17.5507 116.532 18.68 116.532 20.192Z" fill="rgb(4,6,17)" fill-rule="nonzero" />
</svg>
