<svg viewBox="0 0 24 24" xmlns="http://www.w3.org/2000/svg" xmlns:xlink="http://www.w3.org/1999/xlink" width="24.000000" height="24.000000" fill="none">
	<rect id="icon-park-outline:shopping-bag-one" width="24.000000" height="24.000000" x="0.000000" y="0.000000" fill="rgb(255,255,255)" fill-opacity="0" />
	<g id="Group">
		<path id="Vector" d="M17.5 6C18.3284 6 19 6.67157 19 7.5L19 19.5C19 20.3284 18.3284 21 17.5 21L6.5 21C5.67157 21 5 20.3284 5 19.5L5 7.5C5 6.67157 5.67157 6 6.5 6L17.5 6Z" stroke="rgb(28,35,39)" stroke-linejoin="round" stroke-width="2" />
		<path id="Vector" d="M15 9L15 5C15 4.20435 14.6839 3.44129 14.1213 2.87868C13.5587 2.31607 12.7956 2 12 2C11.2044 2 10.4413 2.31607 9.87868 2.87868C9.31607 3.44129 9 4.20435 9 5L9 9" fill-rule="nonzero" stroke="rgb(28,35,39)" stroke-linecap="round" stroke-linejoin="round" stroke-width="2" />
	</g>
</svg>
