<svg viewBox="0 0 24 24" xmlns="http://www.w3.org/2000/svg" xmlns:xlink="http://www.w3.org/1999/xlink" width="24.000000" height="24.000000" fill="none">
	<rect id="icon-park-outline:helpcenter" width="24.000000" height="24.000000" x="0.000000" y="0.000000" fill="rgb(255,255,255)" fill-opacity="0" />
	<g id="Group">
		<path id="Vector" d="M4.5 3C4.10218 3 3.72064 3.15804 3.43934 3.43934C3.15804 3.72064 3 4.10218 3 4.5L3 19.5C3 19.8978 3.15804 20.2794 3.43934 20.5607C3.72064 20.842 4.10218 21 4.5 21L19.5 21C19.8978 21 20.2794 20.842 20.5607 20.5607C20.842 20.2794 21 19.8978 21 19.5L21 4.5C21 4.10218 20.842 3.72064 20.5607 3.43934C20.2794 3.15804 19.8978 3 19.5 3L4.5 3Z" fill-rule="nonzero" stroke="rgb(28,35,39)" stroke-linejoin="round" stroke-width="2" />
		<path id="Vector" d="M12 14.3125L12 12.3125C12.5933 12.3125 13.1734 12.1366 13.6667 11.8069C14.1601 11.4773 14.5446 11.0087 14.7716 10.4606C14.9987 9.91237 15.0581 9.30917 14.9424 8.72723C14.8266 8.14529 14.5409 7.61074 14.1213 7.19118C13.7018 6.77162 13.1672 6.4859 12.5853 6.37015C12.0033 6.25439 11.4001 6.3138 10.8519 6.54086C10.3038 6.76793 9.83524 7.15244 9.50559 7.64579C9.17595 8.13914 9 8.71916 9 9.3125" fill-rule="nonzero" stroke="rgb(28,35,39)" stroke-linecap="round" stroke-linejoin="round" stroke-width="2" />
		<path id="Vector" d="M12 18.8125C12.3315 18.8125 12.6495 18.6808 12.8839 18.4464C13.1183 18.212 13.25 17.894 13.25 17.5625C13.25 17.231 13.1183 16.913 12.8839 16.6786C12.6495 16.4442 12.3315 16.3125 12 16.3125C11.6685 16.3125 11.3505 16.4442 11.1161 16.6786C10.8817 16.913 10.75 17.231 10.75 17.5625C10.75 17.894 10.8817 18.212 11.1161 18.4464C11.3505 18.6808 11.6685 18.8125 12 18.8125Z" fill="rgb(0,0,0)" fill-rule="evenodd" />
		<path id="Vector" d="M12.8839 18.4464C12.6495 18.6808 12.3315 18.8125 12 18.8125C11.6685 18.8125 11.3505 18.6808 11.1161 18.4464C10.8817 18.212 10.75 17.894 10.75 17.5625C10.75 17.231 10.8817 16.913 11.1161 16.6786C11.3505 16.4442 11.6685 16.3125 12 16.3125C12.3315 16.3125 12.6495 16.4442 12.8839 16.6786C13.1183 16.913 13.25 17.231 13.25 17.5625C13.25 17.894 13.1183 18.212 12.8839 18.4464ZM12.6951 17.8504C12.6585 17.9388 12.6036 18.0196 12.5303 18.0928C12.4571 18.1661 12.3763 18.221 12.2879 18.2576C12.1995 18.2942 12.1036 18.3125 12 18.3125C11.8964 18.3125 11.8005 18.2942 11.7121 18.2576C11.6237 18.221 11.5429 18.1661 11.4697 18.0928C11.3964 18.0196 11.3415 17.9388 11.3049 17.8504C11.2683 17.762 11.25 17.6661 11.25 17.5625C11.25 17.4589 11.2683 17.363 11.3049 17.2746C11.3415 17.1862 11.3964 17.1054 11.4697 17.0322C11.5429 16.9589 11.6237 16.904 11.7121 16.8674C11.8005 16.8308 11.8964 16.8125 12 16.8125C12.1036 16.8125 12.1995 16.8308 12.2879 16.8674C12.3763 16.904 12.4571 16.9589 12.5303 17.0322C12.6036 17.1054 12.6585 17.1862 12.6951 17.2746C12.7317 17.363 12.75 17.4589 12.75 17.5625C12.75 17.6661 12.7317 17.762 12.6951 17.8504Z" fill="rgb(28,35,39)" fill-rule="evenodd" />
	</g>
</svg>
