<svg viewBox="0 0 24 24" xmlns="http://www.w3.org/2000/svg" xmlns:xlink="http://www.w3.org/1999/xlink" width="24.000000" height="24.000000" fill="none">
	<rect id="icon-park-outline:book-open" width="24.000000" height="24.000000" x="0.000000" y="0.000000" fill="rgb(255,255,255)" fill-opacity="0" />
	<path id="Vector" d="M12 21C12 20.2044 11.6839 19.4413 11.1213 18.8787C10.5587 18.3161 9.79565 18 9 18L2.5 18L2.5 3.5L8 3.5C9.06087 3.5 10.0783 3.92143 10.8284 4.67157C11.5786 5.42172 12 6.43913 12 7.5L12 21M12 21C12 20.2044 12.3161 19.4413 12.8787 18.8787C13.4413 18.3161 14.2044 18 15 18L21.5 18L21.5 3.5L16 3.5C14.9391 3.5 13.9217 3.92143 13.1716 4.67157C12.4214 5.42172 12 6.43913 12 7.5" fill-rule="nonzero" stroke="rgb(1,64,78)" stroke-linejoin="round" stroke-width="2" />
</svg>
